<svg id="eh60A1TvUFG1" xmlns="http://www.w3.org/2000/svg" xmlns:xlink="http://www.w3.org/1999/xlink" viewBox="0 0 32 32" shape-rendering="geometricPrecision" text-rendering="geometricPrecision"><rect width="32" height="29.066351" rx="0" ry="0" transform="matrix(.967382 0 0 0.967382 0.521888 1.940868)" fill="none" stroke="#252525" stroke-linejoin="round"/><rect width="14.641229" height="14.154989" rx="0" ry="0" transform="translate(2.628398 4.214082)" fill="none" stroke="#252525" stroke-width="0.9" stroke-linejoin="round"/><g transform="translate(0 0.000001)"><path d="M5.97805,10.02195c0-2.04391,1.65692-3.70083,3.70083-3.70083s3.70083,1.65692,3.70083,3.70083-1.65692,6.726319-3.70083,6.726319-3.70083-4.682409-3.70083-6.726319Z" transform="translate(.270133-1.175078)" fill="#252525" stroke-width="0"/><polygon points="0,-4.672181 4.443508,-1.443783 2.746239,3.779874 -2.746239,3.779874 -4.443508,-1.443783 0,-4.672181" transform="matrix(.6812 0 0-.6812 9.949013 14.254421)" fill="#252525" stroke-width="0"/></g><rect width="10.048962" height="3.295627" rx="0" ry="0" transform="translate(19.376667 4.214082)" fill="none" stroke="#252525" stroke-width="0.9" stroke-linejoin="round"/><rect width="10.048962" height="3.295627" rx="0" ry="0" transform="translate(19.376667 9.643763)" fill="none" stroke="#252525" stroke-width="0.9" stroke-linejoin="round"/><rect width="10.048962" height="3.295627" rx="0" ry="0" transform="translate(19.376667 15.073444)" fill="none" stroke="#252525" stroke-width="0.9" stroke-linejoin="round"/><rect width="26.094884" height="4.214081" rx="0" ry="0" transform="matrix(1 0 0 0.794872 3.330745 20.422083)" fill="none" stroke="#252525" stroke-width="0.8" stroke-linejoin="round"/><rect width="18.69323" height="2.917441" rx="0" ry="0" transform="translate(10.732399 25.284484)" fill="none" stroke="#252525" stroke-width="0.8" stroke-linejoin="round"/></svg>
