<svg id="eSKU4fDIWhp1" xmlns="http://www.w3.org/2000/svg" xmlns:xlink="http://www.w3.org/1999/xlink" viewBox="0 0 32 32" shape-rendering="geometricPrecision" text-rendering="geometricPrecision"><path d="" fill="none" stroke="#3f5787" stroke-width="0.5"/><rect width="13.806227" height="13.806227" rx="0" ry="0" transform="translate(2.193774 2.996135)" fill="#252525" stroke-width="0"/><line x1="-4.1861" y1="0" x2="4.1861" y2="0" transform="matrix(1.014926 0 0-1 25.560957 3.870843)" fill="none" stroke="#252525" stroke-width="0.32"/><line x1="-10.840126" y1="0" x2="10.840126" y2="0" transform="translate(16.095375 19.553099)" fill="none" stroke="#252525" stroke-width="0.32"/><line x1="-7.216337" y1="0" x2="7.216338" y2="0" transform="translate(12.471586 21.864826)" fill="none" stroke="#252525" stroke-width="0.32"/><line x1="-2.467925" y1="0" x2="2.467925" y2="0" transform="translate(8.972756 25.863489)" fill="none" stroke="#252525" stroke-width="0.32"/><line x1="-3.155195" y1="0" x2="3.155195" y2="0" transform="translate(8.410444 28.362654)" fill="none" stroke="#252525" stroke-width="0.32"/><line x1="-4.467256" y1="0" x2="4.467256" y2="0" transform="translate(25.342283 25.863489)" fill="none" stroke="#252525" stroke-width="0.32"/><line x1="-2.81156" y1="0" x2="2.81156" y2="0" transform="translate(26.997979 6.86984)" fill="none" stroke="#252525" stroke-width="0.32"/><line x1="-2.81156" y1="0" x2="2.81156" y2="0" transform="translate(26.997979 9.899248)" fill="none" stroke="#252525" stroke-width="0.32"/><line x1="-2.81156" y1="0" x2="2.81156" y2="0" transform="translate(26.997979 12.617918)" fill="none" stroke="#252525" stroke-width="0.32"/></svg>
