<svg id="eFw1ZNaRY6S1" xmlns="http://www.w3.org/2000/svg" xmlns:xlink="http://www.w3.org/1999/xlink" viewBox="0 0 32 32" shape-rendering="geometricPrecision" text-rendering="geometricPrecision"><ellipse rx="8.536215" ry="9.886882" transform="matrix(1.491528 0 0 1.328644 16 16)" fill="none" stroke="#252525" stroke-width="0.35"/><ellipse rx="4.116741" ry="5.335513" transform="translate(16.176299 13.507336)" fill="none" stroke="#252525" stroke-width="0.25"/><rect width="7.204296" height="2.220874" rx="0" ry="0" transform="matrix(.432465 0 0 1.489687 14.618496 18.435573)" fill="#252525" stroke-width="0.25"/><path d="" fill="none" stroke="#3f5787" stroke-width="0.5"/><path d="M9.846361,7.077788l1.750342,1.094035" transform="translate(0 0.000001)" fill="none" stroke="#252525" stroke-width="0.5"/><path d="M9.846361,7.077788l1.750342,1.094035" transform="matrix(-1 0 0 1 31.889743 0.000001)" fill="none" stroke="#252525" stroke-width="0.5"/><path d="M16,4.470897v2.606892" fill="none" stroke="#252525" stroke-width="0.5"/><polygon points="0,-1.725406 0.507084,-0.697941 1.640958,-0.53318 0.820479,0.26659 1.014168,1.395883 0,0.862703 -1.014168,1.395883 -0.820479,0.26659 -1.640958,-0.53318 -0.507084,-0.697941 0,-1.725406" transform="translate(16.093144 13.672098)" fill="#252525" stroke-width="0"/><path d="" fill="none" stroke="#3f5787" stroke-width="0.5"/><path d="M16.176299,20.089777q3.557482,7.458568-4.116741,8.219777" transform="translate(-.462855 0)" fill="none" stroke="#252525" stroke-width="0.35"/></svg>
