<svg id="eq0RB8yc1xZ1" xmlns="http://www.w3.org/2000/svg" xmlns:xlink="http://www.w3.org/1999/xlink" viewBox="0 0 32 32" shape-rendering="geometricPrecision" text-rendering="geometricPrecision"><path d="" fill="none" stroke="#3f5787" stroke-width="0.5"/><path d="" fill="none" stroke="#3f5787" stroke-width="0.5"/><rect width="32" height="29.498564" rx="0" ry="0" transform="matrix(.970887 0 0 0.970887 0.465808 1.67201)" fill="none" stroke="#252525" stroke-linejoin="round"/><ellipse rx="6.213068" ry="8.590242" transform="matrix(.816786 0 0 0.816786 15.51376 14.263283)" fill="none" stroke="#252525"/><polygon points="0,-3.2 0.940456,-1.294427 3.043381,-0.988854 1.52169,0.494427 1.880913,2.588854 0,1.6 -1.880913,2.588854 -1.52169,0.494427 -3.043381,-0.988854 -0.940456,-1.294427 0,-3.2" transform="matrix(.855141 0 0 0.855141 15.51376 14.263283)" fill="#252525" stroke-width="0"/><rect width="5.20504" height="5.463532" rx="0" ry="0" transform="matrix(.799232 0 0 1 13.433743 20.847459)" fill="#252525" stroke-width="0"/><path d="M15.51376,24.149924Q1.923005,35.225392,0.465808,21.44859" transform="translate(0-.601131)" fill="none" stroke="#252525" stroke-width="0.75"/><path d="M15.51376,24.149924Q1.923005,35.225392,0.465808,21.44859" transform="matrix(1.012066 0 0 1.116094-.130762-2.490052)" fill="none" stroke="#252525" stroke-width="0.75"/><line x1="-1.759612" y1="-0.737018" x2="1.759612" y2="0.737018" transform="translate(7.054021 7.983912)" fill="none" stroke="#252525" stroke-width="0.55" stroke-linecap="round" stroke-linejoin="round"/><line x1="-1.759612" y1="-0.737018" x2="1.759612" y2="0.737018" transform="matrix(-1 0 0 1 23.853415 7.983912)" fill="none" stroke="#252525" stroke-width="0.55" stroke-linecap="round" stroke-linejoin="round"/><line x1="0" y1="-1.199736" x2="0" y2="1.199736" transform="translate(15.51376 4.428542)" fill="none" stroke="#252525" stroke-width="0.55" stroke-linecap="round" stroke-linejoin="round"/></svg>
