<svg id="eOxPFcT9rj41" xmlns="http://www.w3.org/2000/svg" xmlns:xlink="http://www.w3.org/1999/xlink" viewBox="0 0 32 32" shape-rendering="geometricPrecision" text-rendering="geometricPrecision"><path d="M2.231097,10.851394l27.537805.104079" transform="translate(0 0.000001)" fill="none" stroke="#252525" stroke-width="0.5"/><ellipse rx="0.473017" ry="0.473017" transform="matrix(2.114089 0 0 2.114089 6.383658 7.2829)" fill="#252525" stroke-width="0"/><path d="M2.2311,26.04687v-21.96059h27.53781v21.96059h-27.53781Z" fill="none" stroke="#252525" stroke-width="0.45" stroke-linejoin="bevel"/><ellipse rx="0.473017" ry="0.473017" transform="matrix(2.114089 0 0 2.114089 9.880125 7.2829)" fill="#252525" stroke-width="0"/><rect width="13.768897" height="3.568495" rx="0" ry="0" transform="matrix(1 0 0 0.560459 14.353932 6.282902)" fill="none" stroke="#252525" stroke-width="0.6"/><rect width="13.768897" height="3.568495" rx="0" ry="0" transform="matrix(0-.617032 0.964121 0 23.711177 22.562428)" fill="none" stroke="#252525" stroke-width="0.6"/><rect width="13.768897" height="3.568495" rx="0" ry="0" transform="matrix(1 0 0 0.560459 5.383658 20.514886)" fill="none" stroke="#252525" stroke-width="0.6"/><rect width="13.768897" height="3.568495" rx="0" ry="0" transform="matrix(1 0 0 0.560459 5.383658 14.066578)" fill="none" stroke="#252525" stroke-width="0.6"/></svg>
