<svg id="eGZyQArtcpK1" xmlns="http://www.w3.org/2000/svg" xmlns:xlink="http://www.w3.org/1999/xlink" viewBox="0 0 32 32" shape-rendering="geometricPrecision" text-rendering="geometricPrecision"><rect width="5.090237" height="10.926265" rx="0" ry="0" transform="matrix(1.161192 0 0 1.238266 22.503607 12.851371)" fill="none" stroke="#252525" stroke-width="0.85"/><path d="M2.231097,10.851394l27.537805.104079" transform="matrix(1.132384 0 0-1.324327-2.118144 25.343145)" fill="none" stroke="#252525" stroke-width="0.5"/><ellipse rx="2.013839" ry="2.013839" transform="translate(5.535381 6.266254)" fill="#252525" stroke-width="0"/><ellipse rx="2.013839" ry="2.013839" transform="translate(10.821709 6.266254)" fill="#252525" stroke-width="0"/><rect width="12.414349" height="4.027678" rx="0" ry="0" transform="translate(16.296432 4.252415)" fill="none" stroke="#252525" stroke-width="0.85"/><rect width="12.414349" height="4.027678" rx="0" ry="0" transform="matrix(1 0 0 0.827941 4.048142 18.184576)" fill="none" stroke="#252525" stroke-width="0.85"/><rect width="12.414349" height="4.027678" rx="0" ry="0" transform="matrix(1 0 0 0.827941 4.048142 12.851371)" fill="none" stroke="#252525" stroke-width="0.85"/><rect width="12.414349" height="4.027678" rx="0" ry="0" transform="matrix(1 0 0 0.827941 4.048142 23.271473)" fill="none" stroke="#252525" stroke-width="0.85"/><rect width="31.183369" height="29.227341" rx="0" ry="0" transform="translate(.408316 0.919645)" fill="none" stroke="#252525"/></svg>
