<svg id="eVA6DYxLrly1" xmlns="http://www.w3.org/2000/svg" xmlns:xlink="http://www.w3.org/1999/xlink" viewBox="0 0 32 32" shape-rendering="geometricPrecision" text-rendering="geometricPrecision"><g transform="translate(.137683 2.513906)"><path d="M15.500125,2.742527L2.329544,9.261965l13.670455,5.597497l13.395087-6.32188L15.500125,2.742527Z" transform="translate(.000002 0.000003)" fill="none" stroke="#252525" stroke-width="0.5"/><path d="" fill="none" stroke="#252525" stroke-width="0.5"/><path d="M9.244099,12.291198L9.770922,16l6.091394,2.481371L21.361032,16l.724381-3.972213" transform="translate(.000002 0)" fill="none" stroke="#252525" stroke-width="0.5"/><ellipse rx="3.63837" ry="0.790236" transform="translate(16 8.801)" fill="#252525"/><path d="M16.000001,8.800998l13.395087.790236" transform="matrix(.850679 0 0 0.55 2.59162 4.13825)" fill="none" stroke="#252525" stroke-width="0.5"/><path d="" fill="none" stroke="#252525" stroke-width="0.5"/></g><path d="M29.395088,9.196116l-1.1195,10.404755" transform="matrix(.55 0 0 1 11.5678 2.513906)" fill="none" stroke="#252525" stroke-width="0.5"/><g transform="matrix(.998849 0.04797-.04797 0.998849 1.7572 0.154688)"><ellipse rx="0.719835" ry="3.12589" transform="translate(26.3995 22.7268)" fill="#252525" stroke-width="0"/><rect width="1.43967" height="3.99666" rx="0" ry="0" transform="translate(25.6797 22.7268)" fill="#252525" stroke-width="0"/></g><rect width="32" height="29.390511" rx="0" ry="0" transform="matrix(.971138 0 0 0.971138 0.461792 1.728879)" fill="none" stroke="#252525" stroke-linejoin="round"/></svg>
