<?xml version="1.0" encoding="utf-8"?>
<svg xmlns="http://www.w3.org/2000/svg" xmlns:xlink="http://www.w3.org/1999/xlink" style="margin: auto; background: none; display: block; shape-rendering: auto;" width="200px" height="200px" viewBox="0 0 100 100" preserveAspectRatio="xMidYMid">
<g transform="translate(50 50)">
<g>
<animateTransform attributeName="transform" type="rotate" values="0;45" keyTimes="0;1" dur="0.4545454545454546s" repeatCount="indefinite"></animateTransform><path d="M26.433879775772606 -5.5 L34.43387977577261 -5.5 L34.43387977577261 5.5 L26.433879775772606 5.5 A27 27 0 0 1 22.580662939044757 14.802488345992733 L22.580662939044757 14.802488345992733 L28.237517188537137 20.45934259548511 L20.459342595485115 28.237517188537133 L14.802488345992733 22.580662939044753 A27 27 0 0 1 5.500000000000001 26.433879775772606 L5.500000000000001 26.433879775772606 L5.500000000000001 34.43387977577261 L-5.499999999999998 34.43387977577261 L-5.499999999999998 26.433879775772606 A27 27 0 0 1 -14.802488345992725 22.58066293904476 L-14.802488345992725 22.58066293904476 L-20.459342595485104 28.23751718853714 L-28.237517188537137 20.45934259548511 L-22.580662939044757 14.80248834599273 A27 27 0 0 1 -26.433879775772603 5.500000000000009 L-26.433879775772603 5.500000000000009 L-34.4338797757726 5.50000000000001 L-34.43387977577261 -5.500000000000001 L-26.433879775772606 -5.500000000000002 A27 27 0 0 1 -22.58066293904476 -14.802488345992725 L-22.58066293904476 -14.802488345992725 L-28.23751718853714 -20.459342595485104 L-20.45934259548511 -28.237517188537137 L-14.80248834599273 -22.580662939044757 A27 27 0 0 1 -5.50000000000001 -26.433879775772603 L-5.50000000000001 -26.433879775772603 L-5.5000000000000115 -34.4338797757726 L5.499999999999998 -34.43387977577261 L5.5 -26.433879775772606 A27 27 0 0 1 14.802488345992725 -22.580662939044764 L14.802488345992725 -22.580662939044764 L20.459342595485104 -28.237517188537147 L28.237517188537137 -20.459342595485115 L22.580662939044757 -14.802488345992733 A27 27 0 0 1 26.433879775772603 -5.5000000000000115 M0 -20A20 20 0 1 0 0 20 A20 20 0 1 0 0 -20" fill="#db2e3a"></path></g></g>
<!-- [ldio] generated by https://loading.io/ --></svg>